<svg xmlns="http://www.w3.org/2000/svg" viewBox="0 0 59.56 59.56"><defs><style>.cls-1{fill:#fff;}</style></defs><title>linkedIn</title><g id="Layer_2" data-name="Layer 2"><g id="Layer_1-2" data-name="Layer 1"><path class="cls-1" d="M45.89,4a9.67,9.67,0,0,1,9.67,9.67V45.89a9.67,9.67,0,0,1-9.67,9.67H13.67A9.67,9.67,0,0,1,4,45.89V13.67A9.67,9.67,0,0,1,13.67,4H45.89M15.78,20.72h0a4,4,0,1,0,.07-8.06c-2.65,0-4.4,1.75-4.4,4a4,4,0,0,0,4.3,4m15.95,6.44V23.87H24s.1,2.18,0,23.3h7.75v-13A5.44,5.44,0,0,1,32,32.27a4.28,4.28,0,0,1,4-2.82c2.79,0,3.89,2.12,3.89,5.27V47.17h7.75V33.81c0-7.15-3.83-10.47-8.93-10.47a7.63,7.63,0,0,0-6.95,3.82M12,47.17h7.75V23.87H12v23.3m19.77-20v.11h-.07l.07-.11M45.89,0H13.67A13.68,13.68,0,0,0,0,13.67V45.89A13.68,13.68,0,0,0,13.67,59.56H45.89A13.68,13.68,0,0,0,59.56,45.89V13.67A13.68,13.68,0,0,0,45.89,0ZM15.54,16.7a1.41,1.41,0,0,1,.34,0l.27,0a1.43,1.43,0,0,1-.34,0h0l-.24,0Z"/></g></g></svg>