<?xml version="1.0" encoding="utf-8"?>
<!-- Generator: Adobe Illustrator 21.1.0, SVG Export Plug-In . SVG Version: 6.00 Build 0)  -->
<svg version="1.1" id="Layer_1" xmlns="http://www.w3.org/2000/svg" xmlns:xlink="http://www.w3.org/1999/xlink" x="0px" y="0px"
	 viewBox="0 0 1920 1080" style="enable-background:new 0 0 1920 1080;" xml:space="preserve">
<style type="text/css">
	.st0{fill:#FFFFFF;}
	.st1{fill:#55565A;}
</style>
<path class="st0" d="M727.1,454.5c0-4.7-0.6-9.2-1.6-13.6h-7c1.2,4.3,1.8,8.9,1.8,13.6c0,29.3-23.9,53.2-53.2,53.2
	c-29.3,0-53.2-23.9-53.2-53.2c0-4.7,0.6-9.3,1.8-13.6h-7c-1,4.4-1.6,8.9-1.6,13.6h-7.5c0,37.2,30.3,67.5,67.5,67.5
	c37.2,0,67.5-30.3,67.5-67.5H727.1z M667,498.4c12.9,0,23.4-10.5,23.4-23.4c0-12.9-10.5-23.4-23.4-23.4c-12.9,0-23.4,10.5-23.4,23.4
	C643.6,488,654.1,498.4,667,498.4z M667,462.9c6.7,0,12.1,5.4,12.1,12.1c0,6.7-5.4,12.1-12.1,12.1c-6.7,0-12.1-5.4-12.1-12.1
	C654.9,468.4,660.3,462.9,667,462.9z"/>
<path class="st1" d="M914.1,542.4h-80.2v14.4h30.4v73.9h17v-73.9h18.4C907.6,556.8,914.1,550.3,914.1,542.4z M799.4,559v44.5
	L748,542.4h-15.6v88.3h16.6v-62.8l52.9,62.8H816v-88.3C806.8,542.4,799.4,549.8,799.4,559z M667,541.7c-4.8,0-9.1,2.7-11.2,7.1
	L617,630.7h17.3l32.5-70.4l32.5,70.4h17.8l-38.9-81.9C676.1,544.5,671.8,541.7,667,541.7z M956.6,541.7c-4.8,0-9.1,2.7-11.2,7.1
	l-38.9,81.9h17.3l32.5-70.4l32.5,70.4h17.8l-38.9-81.9C965.8,544.5,961.4,541.7,956.6,541.7z M620,542.4h-71.4v88.3h16.9v-74.2H620
	V542.4z M574.7,594.7H592c7.8,0,14.1-6.3,14.1-14.1h-31.4V594.7z M1058.7,579.5c-18.4-4-22.8-7.1-22.8-14c0-5.9,5.8-10.6,15.6-10.6
	c5.6,0,11.2,1.3,16.8,3.8c5.7,2.6,12.5,1.1,16.4-3.9l2-2.5c-9.7-7.2-20.8-11.1-34.8-11.1c-19.1,0-32.8,10.3-32.8,25.7
	c0,16.4,11.5,21.9,32,26.5c17.8,3.8,21.7,7.2,21.7,13.6c0,6.8-6.6,11.2-17,11.2c-11.9,0-21.1-4.2-30.3-11.5l-10.1,11.1
	c11.5,9.5,25.4,14.1,40,14.1c20.2,0,34.3-9.8,34.3-26.5C1089.5,590.7,1079,584,1058.7,579.5z M1357.2,606.5
	c-8.2,7.1-15.8,11.5-27.6,11.5c-18.4,0-31.7-14.1-31.7-31.5c0-17.4,13.3-31.3,31.7-31.3c7.1,0,13,1.8,18.4,4.9
	c5.4,3.1,12.2,2.1,16.5-2.4l2.8-3c-9.2-8.1-19.9-13.7-37.6-13.7c-29.1,0-49.5,20.6-49.5,45.8c0,25.5,20.8,45.5,48.8,45.5
	c18,0,28.9-6.1,38.9-15.6L1357.2,606.5z M1238.7,593.6c7.8,0,14.1-6.3,14.1-14.1h-31.4v14.1H1238.7z M1100.5,556.8h30.4v73.9h17
	v-73.9h18.4c7.9,0,14.4-6.4,14.4-14.4h-80.2V556.8z M1195.2,630.7h71.4v-14.1h-54.6v-60h54.6v-14.1h-71.4V630.7z"/>
</svg>
