<?xml version="1.0" encoding="utf-8"?>
<!-- Generator: Adobe Illustrator 21.1.0, SVG Export Plug-In . SVG Version: 6.00 Build 0)  -->
<svg version="1.1" id="Layer_1" xmlns="http://www.w3.org/2000/svg" xmlns:xlink="http://www.w3.org/1999/xlink" x="0px" y="0px"
	 viewBox="0 0 1920 1080" style="enable-background:new 0 0 1920 1080;" xml:space="preserve">
<style type="text/css">
	.st0{fill:#FFFFFF;}
	.st1{fill:#55565A;}
</style>
<path class="st0" d="M727.1,454.5c0-4.7-0.6-9.2-1.6-13.6h-7c1.2,4.3,1.8,8.9,1.8,13.6c0,29.3-23.9,53.2-53.2,53.2
	c-29.3,0-53.2-23.9-53.2-53.2c0-4.7,0.6-9.3,1.8-13.6h-7c-1,4.4-1.6,8.9-1.6,13.6h-7.5c0,37.2,30.3,67.5,67.5,67.5
	c37.2,0,67.5-30.3,67.5-67.5H727.1z M667,498.4c12.9,0,23.4-10.5,23.4-23.4c0-12.9-10.5-23.4-23.4-23.4c-12.9,0-23.4,10.5-23.4,23.4
	C643.6,488,654.1,498.4,667,498.4z M667,462.9c6.7,0,12.1,5.4,12.1,12.1c0,6.7-5.4,12.1-12.1,12.1c-6.7,0-12.1-5.4-12.1-12.1
	C654.9,468.4,660.3,462.9,667,462.9z"/>
<path class="st1" d="M914.1,542.4h-80.2v14.4h30.4v73.9h17v-73.9h18.4C907.6,556.8,914.1,550.3,914.1,542.4z M799.4,559v44.5
	L748,542.4h-15.6v88.3h16.6v-62.8l52.9,62.8H816v-88.3C806.8,542.4,799.4,549.8,799.4,559z M667,541.7c-4.8,0-9.1,2.7-11.2,7.1
	L617,630.7h17.3l32.5-70.4l32.5,70.4h17.8l-38.9-81.9C676.1,544.5,671.8,541.7,667,541.7z M956.6,541.7c-4.8,0-9.1,2.7-11.2,7.1
	l-38.9,81.9h17.3l32.5-70.4l32.5,70.4h17.8l-38.9-81.9C965.8,544.5,961.4,541.7,956.6,541.7z M620,542.4h-71.4v88.3h16.9v-74.2H620
	V542.4z M574.7,594.7H592c7.8,0,14.1-6.3,14.1-14.1h-31.4V594.7z M1058.7,579.5c-18.4-4-22.8-7.1-22.8-14c0-5.9,5.8-10.6,15.6-10.6
	c5.6,0,11.2,1.3,16.8,3.8c5.7,2.6,12.5,1.1,16.4-3.9l2-2.5c-9.7-7.2-20.8-11.1-34.8-11.1c-19.1,0-32.8,10.3-32.8,25.7
	c0,16.4,11.5,21.9,32,26.5c17.8,3.8,21.7,7.2,21.7,13.6c0,6.8-6.6,11.2-17,11.2c-11.9,0-21.1-4.2-30.3-11.5l-10.1,11.1
	c11.5,9.5,25.4,14.1,40,14.1c20.2,0,34.3-9.8,34.3-26.5C1089.5,590.7,1079,584,1058.7,579.5z M1357.2,606.5
	c-8.2,7.1-15.8,11.5-27.6,11.5c-18.4,0-31.7-14.1-31.7-31.5c0-17.4,13.3-31.3,31.7-31.3c7.1,0,13,1.8,18.4,4.9
	c5.4,3.1,12.2,2.1,16.5-2.4l2.8-3c-9.2-8.1-19.9-13.7-37.6-13.7c-29.1,0-49.5,20.6-49.5,45.8c0,25.5,20.8,45.5,48.8,45.5
	c18,0,28.9-6.1,38.9-15.6L1357.2,606.5z M1238.7,593.6c7.8,0,14.1-6.3,14.1-14.1h-31.4v14.1H1238.7z M1100.5,556.8h30.4v73.9h17
	v-73.9h18.4c7.9,0,14.4-6.4,14.4-14.4h-80.2V556.8z M1195.2,630.7h71.4v-14.1h-54.6v-60h54.6v-14.1h-71.4V630.7z"/>
<path class="st1" d="M840.9,667.2v26.6h-3v-26.6H840.9z"/>
<path class="st1" d="M866.8,681.5v12.3h-3v-11.6c0-3.6-2.1-5.7-5.7-5.7c-4,0-6.4,2.7-6.7,6.5v10.7h-3v-20h3v4.4
	c1.4-3,4.1-4.5,7.8-4.5C864,673.7,866.8,676.7,866.8,681.5z"/>
<path class="st1" d="M891.7,681.5v12.3h-3v-11.6c0-3.6-2.1-5.7-5.7-5.7c-4,0-6.4,2.7-6.7,6.5v10.7h-3v-20h3v4.4
	c1.4-3,4.1-4.5,7.8-4.5C888.9,673.7,891.7,676.7,891.7,681.5z"/>
<path class="st1" d="M916.6,683.8c0,6-4.2,10.2-10.2,10.2c-6,0-10.2-4.2-10.2-10.2c0-5.9,4.2-10.1,10.2-10.1
	C912.3,673.7,916.6,677.9,916.6,683.8z M899.2,683.9c0,4.5,3,7.5,7.2,7.5c4.2,0,7.2-3,7.2-7.5c0-4.4-3-7.5-7.2-7.5
	C902.2,676.4,899.2,679.4,899.2,683.9z"/>
<path class="st1" d="M920.7,673.8l6.4,17l6.4-17h3l-7.9,20h-3.1l-8-20H920.7z"/>
<path class="st1" d="M951.9,693.9v-3.1c-1.6,2.2-4.1,3.2-7.3,3.2c-4.1,0-6.8-2.6-6.8-6.1c0-3.5,2.8-5.7,7.5-5.7h6.6v-1.3
	c0-2.9-1.8-4.7-5.4-4.7c-2.2,0-4.3,0.8-6.4,2.3l-1.3-2.1c2.6-1.7,4.8-2.7,8.2-2.7c4.9,0,7.7,2.6,7.7,6.9l0,13.2H951.9z M951.8,687
	v-2.4h-6.2c-3.4,0-5.1,1-5.1,3.3c0,2.2,1.8,3.7,4.6,3.7C948.5,691.5,951.1,689.8,951.8,687z"/>
<path class="st1" d="M971.7,692.5c-1.4,1-2.9,1.5-4.5,1.5c-2.9,0-5.1-1.7-5.1-5.7v-11.5h-2.9v-2.3h2.9v-5.3h2.9v5.3h6.4v2.3H965v11
	c0,2.4,1,3.4,2.7,3.4c1,0,2.1-0.4,3.2-1L971.7,692.5z"/>
<path class="st1" d="M979.5,668.1c0,1.1-0.8,2-1.9,2s-1.9-0.9-1.9-2c0-1.2,0.8-2,1.9-2S979.5,666.9,979.5,668.1z M979,673.8v20h-2.9
	v-20H979z"/>
<path class="st1" d="M1004.5,681.5v12.3h-3v-11.6c0-3.6-2.1-5.7-5.7-5.7c-4,0-6.4,2.7-6.7,6.5v10.7h-3v-20h3v4.4
	c1.4-3,4.1-4.5,7.8-4.5C1001.7,673.7,1004.5,676.7,1004.5,681.5z"/>
<path class="st1" d="M1028.5,673.8v17.9c0,5.9-4,9.6-10.1,9.6c-3.2,0-5.8-1.1-8.2-2.9l1.4-2.2c2,1.6,4.1,2.5,6.7,2.6
	c4.4,0,7.2-2.7,7.2-6.9v-3c-1.4,2.7-4,4.2-7.4,4.2c-5.4,0-9.1-4-9.1-9.7c0-5.6,3.7-9.6,9.1-9.6c3.4,0,6,1.5,7.5,4.2v-4.1H1028.5z
	 M1025.6,683.4c0-4.2-2.9-7.2-6.9-7.2c-4,0-6.9,3-6.9,7.2c0,4.1,2.9,7.2,6.9,7.2C1022.7,690.6,1025.6,687.6,1025.6,683.4z"/>
<path class="st1" d="M1063.9,667.2v2.8H1050v9.6h12.4v2.8H1050v11.5h-3v-26.6H1063.9z"/>
<path class="st1" d="M1080.3,693.9v-3.1c-1.6,2.2-4.1,3.2-7.3,3.2c-4.1,0-6.8-2.6-6.8-6.1c0-3.5,2.8-5.7,7.5-5.7h6.6v-1.3
	c0-2.9-1.8-4.7-5.4-4.7c-2.2,0-4.3,0.8-6.4,2.3l-1.3-2.1c2.6-1.7,4.8-2.7,8.2-2.7c4.9,0,7.7,2.6,7.7,6.9l0,13.2H1080.3z M1080.3,687
	v-2.4h-6.2c-3.4,0-5.1,1-5.1,3.3c0,2.2,1.8,3.7,4.6,3.7C1077,691.5,1079.5,689.8,1080.3,687z"/>
<path class="st1" d="M1108.1,681.5v12.3h-3v-11.6c0-3.6-2.1-5.7-5.7-5.7c-4,0-6.4,2.7-6.7,6.5v10.7h-3v-20h3v4.4
	c1.4-3,4.1-4.5,7.8-4.5C1105.3,673.7,1108.1,676.7,1108.1,681.5z"/>
<path class="st1" d="M1144.5,667.2v2.8h-15v8.9h13.4v2.8h-13.4v9.3h15.5v2.8h-18.6v-26.6H1144.5z"/>
<path class="st1" d="M1169.1,681.5v12.3h-3v-11.6c0-3.6-2.1-5.7-5.7-5.7c-4,0-6.4,2.7-6.7,6.5v10.7h-3v-20h3v4.4
	c1.4-3,4.1-4.5,7.8-4.5C1166.2,673.7,1169.1,676.7,1169.1,681.5z"/>
<path class="st1" d="M1193.1,673.8v17.9c0,5.9-4,9.6-10.1,9.6c-3.2,0-5.8-1.1-8.2-2.9l1.4-2.2c2,1.6,4.1,2.5,6.7,2.6
	c4.4,0,7.2-2.7,7.2-6.9v-3c-1.4,2.7-4,4.2-7.4,4.2c-5.4,0-9.1-4-9.1-9.7c0-5.6,3.7-9.6,9.1-9.6c3.4,0,6,1.5,7.5,4.2v-4.1H1193.1z
	 M1190.1,683.4c0-4.2-2.9-7.2-6.9-7.2c-4,0-6.9,3-6.9,7.2c0,4.1,2.9,7.2,6.9,7.2C1187.3,690.6,1190.1,687.6,1190.1,683.4z"/>
<path class="st1" d="M1212.2,693.9v-3.1c-1.6,2.2-4.1,3.2-7.3,3.2c-4.1,0-6.8-2.6-6.8-6.1c0-3.5,2.8-5.7,7.5-5.7h6.6v-1.3
	c0-2.9-1.8-4.7-5.4-4.7c-2.2,0-4.3,0.8-6.4,2.3l-1.3-2.1c2.6-1.7,4.8-2.7,8.2-2.7c4.9,0,7.7,2.6,7.7,6.9l0,13.2H1212.2z M1212.2,687
	v-2.4h-6.2c-3.4,0-5.1,1-5.1,3.3c0,2.2,1.8,3.7,4.6,3.7C1208.8,691.5,1211.4,689.8,1212.2,687z"/>
<path class="st1" d="M1239.1,673.8v17.9c0,5.9-4,9.6-10.1,9.6c-3.2,0-5.8-1.1-8.2-2.9l1.4-2.2c2,1.6,4.1,2.5,6.7,2.6
	c4.4,0,7.2-2.7,7.2-6.9v-3c-1.4,2.7-4,4.2-7.4,4.2c-5.4,0-9.1-4-9.1-9.7c0-5.6,3.7-9.6,9.1-9.6c3.4,0,6,1.5,7.5,4.2v-4.1H1239.1z
	 M1236.1,683.4c0-4.2-2.9-7.2-6.9-7.2c-4,0-6.9,3-6.9,7.2c0,4.1,2.9,7.2,6.9,7.2C1233.3,690.6,1236.1,687.6,1236.1,683.4z"/>
<path class="st1" d="M1263,685h-16.4c0.5,4,3.3,6.5,7.3,6.5c2.5,0,4.6-0.9,6.2-2.6l1.6,1.7c-1.9,2.1-4.7,3.3-8.1,3.3
	c-5.9,0-10-4.1-10-10.1c0-6,4.1-10.1,9.9-10.1C1260.1,673.7,1263.3,678.2,1263,685z M1260.4,682.6c-0.2-3.9-2.8-6.4-6.7-6.4
	c-3.8,0-6.6,2.5-7,6.4H1260.4z"/>
<path class="st1" d="M1301.2,681.5v12.3h-3v-11.6c0-3.6-2.1-5.7-5.6-5.7c-4.1,0.1-6.5,3.1-6.5,7.5v9.9h-3v-11.6
	c0-3.6-2.1-5.7-5.6-5.7c-4.1,0.1-6.6,3.1-6.6,7.5v9.9h-2.9v-20h2.9v4.5c1.3-3.1,4-4.6,7.7-4.6c3.8,0,6.4,1.9,7.2,5.2
	c1.3-3.5,4.1-5.2,7.9-5.2C1298.4,673.7,1301.2,676.7,1301.2,681.5z"/>
<path class="st1" d="M1325,685h-16.4c0.5,4,3.3,6.5,7.3,6.5c2.5,0,4.6-0.9,6.2-2.6l1.6,1.7c-1.9,2.1-4.7,3.3-8.1,3.3
	c-5.9,0-10-4.1-10-10.1c0-6,4.1-10.1,9.9-10.1C1322.1,673.7,1325.3,678.2,1325,685z M1322.3,682.6c-0.2-3.9-2.8-6.4-6.7-6.4
	c-3.8,0-6.6,2.5-7,6.4H1322.3z"/>
<path class="st1" d="M1348.4,681.5v12.3h-3v-11.6c0-3.6-2.1-5.7-5.7-5.7c-4,0-6.4,2.7-6.7,6.5v10.7h-3v-20h3v4.4
	c1.4-3,4.1-4.5,7.8-4.5C1345.6,673.7,1348.4,676.7,1348.4,681.5z"/>
<path class="st1" d="M1365.3,692.5c-1.4,1-2.9,1.5-4.5,1.5c-2.9,0-5.1-1.7-5.1-5.7v-11.5h-2.9v-2.3h2.9v-5.3h2.9v5.3h6.4v2.3h-6.4
	v11c0,2.4,1,3.4,2.7,3.4c1,0,2.1-0.4,3.2-1L1365.3,692.5z"/>
</svg>
