<svg xmlns="http://www.w3.org/2000/svg" viewBox="0 0 25 18.54"><defs><style>.cls-1{fill:#fff;}</style></defs><title>twitter</title><g id="Layer_2" data-name="Layer 2"><g id="Layer_1-2" data-name="Layer 1"><path class="cls-1" d="M16.52,2.08a3.75,3.75,0,0,1,2.75,1.19,9.36,9.36,0,0,0,2.51-1.41A5.18,5.18,0,0,1,20,4.43a11.64,11.64,0,0,0,2.64-.92,11.85,11.85,0,0,1-2.36,2.28c0,.16,0,.33,0,.49A10.62,10.62,0,0,1,9.6,17a11.13,11.13,0,0,1-7.16-2.28,28.05,28.05,0,0,0,3.07.52A5.4,5.4,0,0,0,9.4,13.72a3.76,3.76,0,0,1-3.51-2.61,4.74,4.74,0,0,0,.71.06,4,4,0,0,0,1-.13,3.76,3.76,0,0,1-3-3.69v0a3.78,3.78,0,0,0,1.7.48,4.25,4.25,0,0,1-1.9-3.28A4.48,4.48,0,0,1,4.92,2c1.73,3.31,4.82,4.52,7.93,4.68a4.25,4.25,0,0,1-.09-.86,3.76,3.76,0,0,1,3.76-3.76m3.16-.54a5.34,5.34,0,0,0-8.4,3.35A9.11,9.11,0,0,1,6.33,1.77L4.89,0,3.74,1.34a6.69,6.69,0,0,0-.69,2.14,2.65,2.65,0,0,0,0,.87l.23,1.22L3,7.31v0a5.33,5.33,0,0,0,1,3.17H4a4.83,4.83,0,0,0,.42,1.95c.82,1.79,1.8,1.59,1.8,1.59L0,13.73l1.79,1.88a12.13,12.13,0,0,0,7.3,2.93H9.6a12,12,0,0,0,9.12-4,12.68,12.68,0,0,0,3.15-8,9.64,9.64,0,0,0,1.6-1.8L25,1.85l-2.28.71L23.35.2S20.08,1.4,19.68,1.53Z"/></g></g></svg>